<svg id="Layer_1" data-name="Layer 1" xmlns="http://www.w3.org/2000/svg" viewBox="0 0 1440 889.82"><defs><style>.cls-1{fill:none;stroke:#f1f2f6;stroke-miterlimit:10;}</style></defs><title>L_Backgrounds</title><rect class="cls-1" y="2.55" width="1441.81" height="1441.81"/><line class="cls-1" y1="889.82" x2="1441.81" y2="889.82"/><line class="cls-1" y1="778.91" x2="1441.81" y2="778.91"/><line class="cls-1" y1="668" x2="1441.81" y2="668"/><line class="cls-1" y1="557.09" x2="1441.81" y2="557.09"/><line class="cls-1" y1="446.18" x2="1441.81" y2="446.18"/><line class="cls-1" y1="335.28" x2="1441.81" y2="335.28"/><line class="cls-1" y1="224.37" x2="1441.81" y2="224.37"/><line class="cls-1" y1="113.46" x2="1441.81" y2="113.46"/><line class="cls-1" x1="1330.9" y1="2.55" x2="1330.9" y2="1444.36"/><line class="cls-1" x1="1219.99" y1="2.55" x2="1219.99" y2="1444.36"/><line class="cls-1" x1="1109.08" y1="2.55" x2="1109.08" y2="1444.36"/><line class="cls-1" x1="998.18" y1="2.55" x2="998.18" y2="1444.36"/><line class="cls-1" x1="887.27" y1="2.55" x2="887.27" y2="1444.36"/><line class="cls-1" x1="776.36" y1="2.55" x2="776.36" y2="1444.36"/><line class="cls-1" x1="665.45" y1="2.55" x2="665.45" y2="1444.36"/><line class="cls-1" x1="554.54" y1="2.55" x2="554.54" y2="1444.36"/><line class="cls-1" x1="443.63" y1="2.55" x2="443.63" y2="1444.36"/><line class="cls-1" x1="332.73" y1="2.55" x2="332.73" y2="1444.36"/><line class="cls-1" x1="221.82" y1="2.55" x2="221.82" y2="1444.36"/><line class="cls-1" x1="110.91" y1="2.55" x2="110.91" y2="1444.36"/><line class="cls-1" x1="110.91" y1="224.37" x2="330.61" y2="4.67"/><line class="cls-1" x1="554.54" y1="113.46" x2="445.75" y2="4.67"/><line class="cls-1" x1="1219.99" y1="224.37" x2="1439.69" y2="4.67"/><line class="cls-1" x1="665.45" y1="4.67" x2="885.15" y2="224.37"/><line class="cls-1" x1="1109.08" y1="115.58" x2="1000.29" y2="224.37"/><line class="cls-1" x1="110.91" y1="890.88" x2="330.61" y2="671.18"/><line class="cls-1" x1="554.54" y1="779.97" x2="445.75" y2="671.18"/><line class="cls-1" x1="1219.99" y1="890.88" x2="1439.69" y2="671.18"/><line class="cls-1" x1="665.45" y1="671.18" x2="885.15" y2="890.88"/><line class="cls-1" x1="1109.08" y1="782.09" x2="1000.29" y2="890.88"/><line class="cls-1" x1="-1.06" y1="336.33" x2="218.64" y2="556.03"/><line class="cls-1" x1="442.57" y1="447.24" x2="333.78" y2="556.03"/><line class="cls-1" x1="1108.02" y1="336.33" x2="1327.72" y2="556.03"/><line class="cls-1" x1="553.48" y1="556.03" x2="773.18" y2="336.33"/><line class="cls-1" x1="997.12" y1="445.12" x2="888.33" y2="336.33"/></svg>